C:\Users\u0145647\OneDrive - KU Leuven\KU Leuven\BCN_Workshop\ParameterEstimation\Data_CP1\IPSA\JointAngles\JointAngles_segment_16.mot
version=1
nRows=141
nColumns=4
inDegrees=yes
endheader
                time	         pelvis_tilt	       hip_flexion_l	       ankle_angle_l	
          1.57500000	         90.00000000	          0.00000000	        -47.54762252	
          1.58000000	         90.00000000	          0.00000000	        -47.54016465	
          1.58500000	         90.00000000	          0.00000000	        -47.53327834	
          1.59000000	         90.00000000	          0.00000000	        -47.52715204	
          1.59500000	         90.00000000	          0.00000000	        -47.52150366	
          1.60000000	         90.00000000	          0.00000000	        -47.51625967	
          1.60500000	         90.00000000	          0.00000000	        -47.51166733	
          1.61000000	         90.00000000	          0.00000000	        -47.50714727	
          1.61500000	         90.00000000	          0.00000000	        -47.50191024	
          1.62000000	         90.00000000	          0.00000000	        -47.49593046	
          1.62500000	         90.00000000	          0.00000000	        -47.48938755	
          1.63000000	         90.00000000	          0.00000000	        -47.48270951	
          1.63500000	         90.00000000	          0.00000000	        -47.47625835	
          1.64000000	         90.00000000	          0.00000000	        -47.46992221	
          1.64500000	         90.00000000	          0.00000000	        -47.46269572	
          1.65000000	         90.00000000	          0.00000000	        -47.45399746	
          1.65500000	         90.00000000	          0.00000000	        -47.44445043	
          1.66000000	         90.00000000	          0.00000000	        -47.43448463	
          1.66500000	         90.00000000	          0.00000000	        -47.42373117	
          1.67000000	         90.00000000	          0.00000000	        -47.41262782	
          1.67500000	         90.00000000	          0.00000000	        -47.40163676	
          1.68000000	         90.00000000	          0.00000000	        -47.39133260	
          1.68500000	         90.00000000	          0.00000000	        -47.38217029	
          1.69000000	         90.00000000	          0.00000000	        -47.37402900	
          1.69500000	         90.00000000	          0.00000000	        -47.36657848	
          1.70000000	         90.00000000	          0.00000000	        -47.35868512	
          1.70500000	         90.00000000	          0.00000000	        -47.34910521	
          1.71000000	         90.00000000	          0.00000000	        -47.33715539	
          1.71500000	         90.00000000	          0.00000000	        -47.32361036	
          1.72000000	         90.00000000	          0.00000000	        -47.31004415	
          1.72500000	         90.00000000	          0.00000000	        -47.29696914	
          1.73000000	         90.00000000	          0.00000000	        -47.28447877	
          1.73500000	         90.00000000	          0.00000000	        -47.27319927	
          1.74000000	         90.00000000	          0.00000000	        -47.26352965	
          1.74500000	         90.00000000	          0.00000000	        -47.25512612	
          1.75000000	         90.00000000	          0.00000000	        -47.24766213	
          1.75500000	         90.00000000	          0.00000000	        -47.24098228	
          1.76000000	         90.00000000	          0.00000000	        -47.23479919	
          1.76500000	         90.00000000	          0.00000000	        -47.22898740	
          1.77000000	         90.00000000	          0.00000000	        -47.22342587	
          1.77500000	         90.00000000	          0.00000000	        -47.21708250	
          1.78000000	         90.00000000	          0.00000000	        -47.20937466	
          1.78500000	         90.00000000	          0.00000000	        -47.20047836	
          1.79000000	         90.00000000	          0.00000000	        -47.19179630	
          1.79500000	         90.00000000	          0.00000000	        -47.18397589	
          1.80000000	         90.00000000	          0.00000000	        -47.17721751	
          1.80500000	         90.00000000	          0.00000000	        -47.17230524	
          1.81000000	         90.00000000	          0.00000000	        -47.16931143	
          1.81500000	         90.00000000	          0.00000000	        -47.16677911	
          1.82000000	         90.00000000	          0.00000000	        -47.16302599	
          1.82500000	         90.00000000	          0.00000000	        -47.15762766	
          1.83000000	         90.00000000	          0.00000000	        -47.15109945	
          1.83500000	         90.00000000	          0.00000000	        -47.14412714	
          1.84000000	         90.00000000	          0.00000000	        -47.13583963	
          1.84500000	         90.00000000	          0.00000000	        -47.12545731	
          1.85000000	         90.00000000	          0.00000000	        -47.11350362	
          1.85500000	         90.00000000	          0.00000000	        -47.10088085	
          1.86000000	         90.00000000	          0.00000000	        -47.08828393	
          1.86500000	         90.00000000	          0.00000000	        -47.07550354	
          1.87000000	         90.00000000	          0.00000000	        -47.06205851	
          1.87500000	         90.00000000	          0.00000000	        -47.04805882	
          1.88000000	         90.00000000	          0.00000000	        -47.03281310	
          1.88500000	         90.00000000	          0.00000000	        -47.01490871	
          1.89000000	         90.00000000	          0.00000000	        -46.99473936	
          1.89500000	         90.00000000	          0.00000000	        -46.97452365	
          1.90000000	         90.00000000	          0.00000000	        -46.95564882	
          1.90500000	         90.00000000	          0.00000000	        -46.93771626	
          1.91000000	         90.00000000	          0.00000000	        -46.91953314	
          1.91500000	         90.00000000	          0.00000000	        -46.90002989	
          1.92000000	         90.00000000	          0.00000000	        -46.87871581	
          1.92500000	         90.00000000	          0.00000000	        -46.85624210	
          1.93000000	         90.00000000	          0.00000000	        -46.83291867	
          1.93500000	         90.00000000	          0.00000000	        -46.80925369	
          1.94000000	         90.00000000	          0.00000000	        -46.78616499	
          1.94500000	         90.00000000	          0.00000000	        -46.76385678	
          1.95000000	         90.00000000	          0.00000000	        -46.74185168	
          1.95500000	         90.00000000	          0.00000000	        -46.71875054	
          1.96000000	         90.00000000	          0.00000000	        -46.69355441	
          1.96500000	         90.00000000	          0.00000000	        -46.66630037	
          1.97000000	         90.00000000	          0.00000000	        -46.63795142	
          1.97500000	         90.00000000	          0.00000000	        -46.60916958	
          1.98000000	         90.00000000	          0.00000000	        -46.58000201	
          1.98500000	         90.00000000	          0.00000000	        -46.55007139	
          1.99000000	         90.00000000	          0.00000000	        -46.51855985	
          1.99500000	         90.00000000	          0.00000000	        -46.48552302	
          2.00000000	         90.00000000	          0.00000000	        -46.45150177	
          2.00500000	         90.00000000	          0.00000000	        -46.41693798	
          2.01000000	         90.00000000	          0.00000000	        -46.38202301	
          2.01500000	         90.00000000	          0.00000000	        -46.34630237	
          2.02000000	         90.00000000	          0.00000000	        -46.30921228	
          2.02500000	         90.00000000	          0.00000000	        -46.27048451	
          2.03000000	         90.00000000	          0.00000000	        -46.23121699	
          2.03500000	         90.00000000	          0.00000000	        -46.19234782	
          2.04000000	         90.00000000	          0.00000000	        -46.15465161	
          2.04500000	         90.00000000	          0.00000000	        -46.11815182	
          2.05000000	         90.00000000	          0.00000000	        -46.08282679	
          2.05500000	         90.00000000	          0.00000000	        -46.04827315	
          2.06000000	         90.00000000	          0.00000000	        -46.01362249	
          2.06500000	         90.00000000	          0.00000000	        -45.97849186	
          2.07000000	         90.00000000	          0.00000000	        -45.94278137	
          2.07500000	         90.00000000	          0.00000000	        -45.90668870	
          2.08000000	         90.00000000	          0.00000000	        -45.87055005	
          2.08500000	         90.00000000	          0.00000000	        -45.83425553	
          2.09000000	         90.00000000	          0.00000000	        -45.79741009	
          2.09500000	         90.00000000	          0.00000000	        -45.75908179	
          2.10000000	         90.00000000	          0.00000000	        -45.71881644	
          2.10500000	         90.00000000	          0.00000000	        -45.67682632	
          2.11000000	         90.00000000	          0.00000000	        -45.63381584	
          2.11500000	         90.00000000	          0.00000000	        -45.59016556	
          2.12000000	         90.00000000	          0.00000000	        -45.54589857	
          2.12500000	         90.00000000	          0.00000000	        -45.50060783	
          2.13000000	         90.00000000	          0.00000000	        -45.45348673	
          2.13500000	         90.00000000	          0.00000000	        -45.40392922	
          2.14000000	         90.00000000	          0.00000000	        -45.35206606	
          2.14500000	         90.00000000	          0.00000000	        -45.29820837	
          2.15000000	         90.00000000	          0.00000000	        -45.24265894	
          2.15500000	         90.00000000	          0.00000000	        -45.18575681	
          2.16000000	         90.00000000	          0.00000000	        -45.12745433	
          2.16500000	         90.00000000	          0.00000000	        -45.06752957	
          2.17000000	         90.00000000	          0.00000000	        -45.00674372	
          2.17500000	         90.00000000	          0.00000000	        -44.94516989	
          2.18000000	         90.00000000	          0.00000000	        -44.88239409	
          2.18500000	         90.00000000	          0.00000000	        -44.81836702	
          2.19000000	         90.00000000	          0.00000000	        -44.75314616	
          2.19500000	         90.00000000	          0.00000000	        -44.68656611	
          2.20000000	         90.00000000	          0.00000000	        -44.61920005	
          2.20500000	         90.00000000	          0.00000000	        -44.55180997	
          2.21000000	         90.00000000	          0.00000000	        -44.48510824	
          2.21500000	         90.00000000	          0.00000000	        -44.41924227	
          2.22000000	         90.00000000	          0.00000000	        -44.35325597	
          2.22500000	         90.00000000	          0.00000000	        -44.28644946	
          2.23000000	         90.00000000	          0.00000000	        -44.21835465	
          2.23500000	         90.00000000	          0.00000000	        -44.14879318	
          2.24000000	         90.00000000	          0.00000000	        -44.07844526	
          2.24500000	         90.00000000	          0.00000000	        -44.00811121	
          2.25000000	         90.00000000	          0.00000000	        -43.93800255	
          2.25500000	         90.00000000	          0.00000000	        -43.86758023	
          2.26000000	         90.00000000	          0.00000000	        -43.79586522	
          2.26500000	         90.00000000	          0.00000000	        -43.72250830	
          2.27000000	         90.00000000	          0.00000000	        -43.64845026	
          2.27500000	         90.00000000	          0.00000000	        -43.57423878	
